<svg width="336" height="288" viewBox="0 0 336 288" fill="none" xmlns="http://www.w3.org/2000/svg">
<path d="M0 120L6 108L12 102L6 90L18 66L30 60L36 48L66 30L78 18L102 12L114 6L138 0L186 6L204 12H222L234 18L264 30L276 36L306 72L312 90L324 108L330 126L336 162L330 198L312 222L300 228L294 240L264 258H234L210 252L216 276V288L204 282L186 258L180 240L168 228L162 216L144 222L108 216L84 204L72 186L30 174L12 144L6 138L0 120Z" fill="#EBC0D1"/>
<path d="M336 162L318 192L300 204L276 198L246 201L216 186L192 192L204 180L240 168L276 174L300 162L318 132L300 150L264 162L234 156L198 168H186L132 150L108 162L90 156L108 144L150 138L192 150L228 144L258 138L282 126L270 120L240 126L210 138L168 126L162 114L132 102L126 78L102 84L90 108L72 114L54 126L30 108L12 114L6 108L0 120L6 138L12 144L30 174L72 186L84 204L108 216L144 222L162 216L168 228L180 240L186 258L204 282L216 288V276L210 252L234 258H264L294 240L300 228L312 222L330 198L336 162Z" fill="#B8778B"/>
<path d="M12 102L6 90L30 66L60 48L72 60L42 66L36 78L54 90L78 84L54 102L24 90L12 102Z" fill="#B8778B"/>
<path d="M66 30L78 18L90 24H120L150 12L192 24L168 30L138 24L114 36L90 30L72 42L66 30Z" fill="#B8778B"/>
<path d="M156 60L162 42L150 54L144 84L180 114L162 90L156 60Z" fill="#B8778B"/>
<path d="M96 54L132 42L102 66L84 90L96 54Z" fill="#B8778B"/>
<path d="M180 66L186 36V60L192 78L216 90L228 108L258 96L240 114L216 120L210 108L192 96L186 84L180 66Z" fill="#B8778B"/>
<path d="M240 48L282 54L234 60L198 36L210 24L216 36L240 48Z" fill="#B8778B"/>
<path d="M240 78L222 66L240 72H270L282 84L306 90L294 96H288L264 78L246 84L240 78Z" fill="#B8778B"/>
<path d="M210 24L222 12H204L198 36L210 24Z" fill="#B8778B"/>
<path d="M150 138L192 150L258 138L192 144L150 138Z" fill="#954B70"/>
<path d="M114 108L126 78V114L150 138L108 144L90 156L96 168L120 180L162 174L156 180L120 186L90 180L126 204L156 198L180 180L240 162L282 168L300 162L276 174L240 168L204 180L192 192L204 198H222L240 210L264 216L240 222L216 210L198 216L204 228L228 234L234 240L258 246L288 228L312 222L300 228L294 240L264 258H234L210 252L192 234L198 258L216 288L204 282L186 258L180 240L168 228L162 216L144 222L108 216L84 204L72 186L30 174L12 144L6 138L12 126L36 132L42 144L72 150L96 144L108 138L120 120L114 108Z" fill="#954B70"/>
<path d="M264 132L282 126L258 138L264 132Z" fill="#954B70"/>
<path d="M6 90H24L12 102L6 90Z" fill="#954B70"/>
<path d="M54 102L78 84L54 96L18 84L24 90L54 102Z" fill="#954B70"/>
<path d="M6 90L18 66V78L6 90Z" fill="#954B70"/>
<path d="M12 114V126L6 138L0 120L6 108L12 114Z" fill="#954B70"/>
<path d="M72 42L78 18L66 30L72 42Z" fill="#954B70"/>
<path d="M240 78L222 66L246 78H264L246 84L240 78Z" fill="#954B70"/>
<path d="M186 84L180 66L198 96L216 108L222 114H240L216 120L210 108L192 96L186 84Z" fill="#954B70"/>
<path d="M144 84L150 54V84L180 114L144 84Z" fill="#954B70"/>
<path d="M288 96L264 78L294 96H288Z" fill="#954B70"/>
<path d="M72 180L90 156L54 162L36 168L12 144L30 174L72 186V180Z" fill="#6C284A"/>
<path d="M108 216L84 204L138 216L168 210L198 180L240 168L204 180L180 204L192 210L216 204L240 222L216 210L198 216V228L216 246L234 258L210 252L192 234L186 222L162 216L144 222L108 216Z" fill="#6C284A"/>
<path d="M180 240L168 228L180 234L192 252L204 282L186 258L180 240Z" fill="#6C284A"/>
<path d="M108 144L150 138H138L120 132L108 144Z" fill="#6C284A"/>
<path d="M90 24L78 18L102 12L114 6L150 12L120 24H90Z" fill="#D39AB9"/>
<path d="M60 48L66 30L36 48L30 60L18 66V78L30 66L60 48Z" fill="#D39AB9"/>
<path d="M36 102L24 90L6 108L12 114L30 108L36 102Z" fill="#D39AB9"/>
<path d="M90 156L108 144H126L132 150L108 162L90 156Z" fill="#D39AB9"/>
<path d="M216 150L234 156L198 168H186L168 162L192 150H216Z" fill="#D39AB9"/>
<path d="M84 90L96 54L84 48V90Z" fill="#D39AB9"/>
<path d="M126 78L132 42L102 66L84 90L72 114L90 108L102 84L126 78Z" fill="#D39AB9"/>
<path d="M48 72L54 90L36 78L42 66L72 60L48 72Z" fill="#D39AB9"/>
<path d="M258 186L276 180L258 192L240 186H258Z" fill="#D39AB9"/>
<path d="M264 216L240 222L216 210L198 216H216L222 222L240 228L264 222L276 216L288 222L306 210L288 216L270 210L264 216Z" fill="#D39AB9"/>
<path d="M180 114L162 90L156 60L168 66L192 114L210 120H192L180 114Z" fill="#D39AB9"/>
<path d="M72 126L96 114L84 132L54 138L72 126Z" fill="#D39AB9"/>
<path d="M324 108L312 90L306 114L282 144L306 132L324 108Z" fill="#D39AB9"/>
<path d="M270 72L282 54L222 66L240 72H270Z" fill="#D39AB9"/>
<path d="M186 36L192 48L204 66L216 90L192 78L186 60V36Z" fill="#D39AB9"/>
<path d="M312 180L324 156L288 186L312 180Z" fill="#D39AB9"/>
<path d="M156 180L162 174L174 180L132 192L90 180L120 186L156 180Z" fill="#D39AB9"/>
<path d="M204 12L186 6L198 36L204 12Z" fill="#D39AB9"/>
<path d="M240 78L222 66H216L240 90L252 84L288 96L264 78L246 84L240 78Z" fill="#FCEEEE"/>
<path d="M198 36L234 60L216 54L186 36H198Z" fill="#FCEEEE"/>
<path d="M186 84L180 66L186 36L174 42V66L192 96L186 84Z" fill="#FCEEEE"/>
<path d="M168 30L138 24L174 42L168 30Z" fill="#FCEEEE"/>
<path d="M144 84L150 54L144 36L138 54L144 84Z" fill="#FCEEEE"/>
<path d="M216 120L192 96L210 108L216 120Z" fill="#FCEEEE"/>
<path d="M258 138L192 150H246L270 144L300 114L282 126L258 138Z" fill="#FCEEEE"/>
<path d="M294 144H282L306 132L324 108L312 132L294 144Z" fill="#FCEEEE"/>
<path d="M306 162L318 132L300 162L276 174L270 180L240 186H258L276 180H282L306 162Z" fill="#FCEEEE"/>
<path d="M312 180L324 156L318 186L294 192L276 186H288L312 180Z" fill="#FCEEEE"/>
<path d="M264 36L222 18L276 48L264 36Z" fill="#FCEEEE"/>
<path d="M90 30L114 36L138 24L114 42L90 36L72 42L90 30Z" fill="#FCEEEE"/>
<path d="M84 48L132 42L96 54L84 48Z" fill="#FCEEEE"/>
<path d="M60 48L66 30L72 42V60L60 48Z" fill="#FCEEEE"/>
<path d="M36 102L24 90L54 102H36Z" fill="#FCEEEE"/>
<path d="M150 138L192 150H162L150 138Z" fill="#FCEEEE"/>
<path d="M294 66L282 54L294 78L306 90L294 66Z" fill="#FCEEEE"/>
<path d="M258 96L240 114L270 102L294 108L270 96H258Z" fill="#FCEEEE"/>
</svg>
